<svg width="24" height="29" viewBox="0 0 24 29" fill="none" xmlns="http://www.w3.org/2000/svg">
<path fill-rule="evenodd" clip-rule="evenodd" d="M2.98995 4.87354C3.30627 4.34878 5.05018 2.4438 6.2929 2.50131C6.66469 2.53314 6.99334 2.75701 7.26037 3.01786H7.2614C7.87351 3.61759 9.62974 5.88098 9.72834 6.35748C9.97175 7.52614 8.57806 8.19981 9.00428 9.37772C10.0909 12.0365 11.9632 13.9086 14.6232 14.9941C15.8002 15.4213 16.4739 14.0287 17.6427 14.2711C18.1192 14.3707 20.3839 16.1258 20.9826 16.7388V16.7388C21.2425 17.0048 21.4684 17.3345 21.4992 17.7062C21.5454 19.0156 19.5222 20.7829 19.1278 21.0089C18.1973 21.6754 16.9833 21.663 15.5034 20.975C11.3737 19.2569 4.77391 12.782 3.02384 8.4966C2.35421 7.02499 2.30902 5.80293 2.98995 4.87354Z" stroke="#242423" stroke-width="1.5" stroke-linecap="round" stroke-linejoin="round"/>
<path d="M14.5654 2.75008C18.2674 3.16108 21.1904 6.08108 21.6064 9.78208" stroke="#242423" stroke-width="1.5" stroke-linecap="round" stroke-linejoin="round"/>
<path d="M14.5654 6.29298C16.3354 6.63798 17.7184 8.02098 18.0634 9.79098" stroke="#242423" stroke-width="1.5" stroke-linecap="round" stroke-linejoin="round"/>
<circle cx="19" cy="23.6648" r="4" fill="#F5CF13" stroke="#242423" stroke-width="2"/>
</svg>
