<svg width="36" height="36" viewBox="0 0 36 36" fill="none" xmlns="http://www.w3.org/2000/svg">
<g clip-path="url(#clip0_2_165)">
<path d="M18.0001 19.741C21.1921 19.741 23.7797 17.1533 23.7797 13.9613C23.7797 10.7692 21.1921 8.18158 18.0001 8.18158C14.808 8.18158 12.2204 10.7692 12.2204 13.9613C12.2204 17.1533 14.808 19.741 18.0001 19.741Z" fill="#F5CF13"/>
<path d="M31.5956 13.4494C31.7854 13.2032 31.9239 12.9216 32.0029 12.621C32.0819 12.3204 32.0998 12.007 32.0554 11.6993C32.0111 11.3917 31.9055 11.0961 31.7449 10.83C31.5843 10.564 31.3719 10.3328 31.1203 10.1503L30.136 9.43592C29.8114 9.20054 29.5532 8.88515 29.3866 8.52045C29.2201 8.15574 29.1507 7.75413 29.1853 7.35467L29.2894 6.14248C29.3178 5.83188 29.2834 5.51873 29.1882 5.22171C29.0931 4.92469 28.939 4.64987 28.7354 4.41365C28.5317 4.17743 28.2825 3.98464 28.0028 3.84678C27.723 3.70893 27.4183 3.62882 27.1069 3.61124L25.8919 3.54374C25.4917 3.52095 25.1043 3.39501 24.7672 3.17816C24.4301 2.96131 24.1548 2.66094 23.9681 2.30624L23.4056 1.22905C23.2598 0.954325 23.0602 0.711693 22.8188 0.515543C22.5774 0.319392 22.2991 0.173717 22.0003 0.0871577C21.7015 0.000598114 21.3884 -0.0250832 21.0796 0.0116367C20.7707 0.0483566 20.4723 0.14673 20.2022 0.300923L19.1447 0.899985C18.7956 1.09767 18.4012 1.20158 18 1.20158C17.5988 1.20158 17.2044 1.09767 16.8553 0.899985L15.7978 0.300923C15.5271 0.147605 15.2284 0.0502203 14.9193 0.0145459C14.6103 -0.0211284 14.2972 0.00563444 13.9987 0.0932467C13.7002 0.180859 13.4223 0.327536 13.1816 0.524575C12.9408 0.721614 12.7421 0.965001 12.5972 1.2403L12.0347 2.31749C11.848 2.67219 11.5728 2.97256 11.2357 3.18941C10.8986 3.40626 10.5111 3.5322 10.111 3.55499L8.89596 3.62249C8.58455 3.64007 8.27987 3.72018 8.00009 3.85803C7.72031 3.99589 7.47115 4.18868 7.26748 4.4249C7.06381 4.66112 6.90978 4.93594 6.8146 5.23296C6.71942 5.52998 6.68502 5.84313 6.71346 6.15373L6.81752 7.36592C6.85214 7.76538 6.78278 8.16699 6.6162 8.5317C6.44962 8.8964 6.19148 9.21179 5.86689 9.44717L4.88252 10.1615C4.63096 10.3441 4.41858 10.5752 4.25796 10.8413C4.09734 11.1074 3.99174 11.403 3.94742 11.7106C3.9031 12.0182 3.92095 12.3316 3.99993 12.6322C4.07891 12.9328 4.2174 13.2145 4.40721 13.4606L5.14971 14.4225C5.39478 14.7397 5.55363 15.1148 5.6108 15.5116C5.66797 15.9083 5.62151 16.3131 5.47596 16.6865L5.03439 17.8115C4.92152 18.1011 4.86787 18.4103 4.87664 18.7209C4.8854 19.0316 4.9564 19.3373 5.08542 19.62C5.21445 19.9027 5.39888 20.1566 5.62779 20.3668C5.85671 20.5769 6.12546 20.739 6.41814 20.8434L7.56283 21.2512C7.94076 21.3856 8.27747 21.6155 8.54017 21.9186C8.80287 22.2218 8.98261 22.5877 9.06189 22.9809L9.28127 24.0497L6.35908 33.5475L10.9941 32.0962L13.8797 36L16.515 27.3853C16.9095 27.7127 17.4011 27.9004 17.9134 27.9192C18.4257 27.9381 18.9298 27.7869 19.3472 27.4894L22.1203 36L25.006 32.0962L29.641 33.5475L26.6485 24.3675C26.6681 24.3028 26.685 24.2409 26.6991 24.1734L26.9381 22.9809C27.0174 22.5877 27.1972 22.2218 27.4599 21.9186C27.7226 21.6155 28.0593 21.3856 28.4372 21.2512L29.5819 20.8434C29.8746 20.739 30.1433 20.5769 30.3722 20.3668C30.6012 20.1566 30.7856 19.9027 30.9146 19.62C31.0436 19.3373 31.1146 19.0316 31.1234 18.7209C31.1322 18.4103 31.0785 18.1011 30.9656 17.8115L30.5241 16.6865C30.3785 16.3131 30.3321 15.9083 30.3892 15.5116C30.4464 15.1148 30.6053 14.7397 30.8503 14.4225L31.5956 13.4494ZM9.97033 13.9612C9.97033 12.3731 10.4413 10.8207 11.3236 9.50018C12.2059 8.1797 13.46 7.15052 14.9272 6.54277C16.3944 5.93502 18.0089 5.77601 19.5665 6.08584C21.1241 6.39566 22.5549 7.16042 23.6779 8.28339C24.8008 9.40636 25.5656 10.8371 25.8754 12.3947C26.1852 13.9523 26.0262 15.5668 25.4185 17.0341C24.8107 18.5013 23.7815 19.7554 22.4611 20.6377C21.1406 21.52 19.5881 21.9909 18 21.9909C15.8711 21.9887 13.83 21.142 12.3246 19.6366C10.8193 18.1312 9.97256 16.0902 9.97033 13.9612Z" fill="#F5CF13"/>
</g>
<defs>
<clipPath id="clip0_2_165">
<rect width="36" height="36" fill="white"/>
</clipPath>
</defs>
</svg>
