<svg width="24" height="24" viewBox="0 0 24 24" fill="none" xmlns="http://www.w3.org/2000/svg">
<circle cx="12" cy="12" r="10" stroke="#F5CF13" stroke-width="2"/>
<path d="M11.5 7C11.5 6.72386 11.7239 6.5 12 6.5C12.2761 6.5 12.5 6.72386 12.5 7V10.9166C12.1491 10.8966 11.7925 10.9993 11.5 11.2246V7ZM15.596 16.3033L12.6466 13.3539C12.9555 13.2061 13.2059 12.9557 13.3538 12.6468L16.3031 15.5962C16.4984 15.7914 16.4984 16.108 16.3031 16.3033C16.1078 16.4985 15.7913 16.4985 15.596 16.3033ZM12.0605 12.0606C12.1801 11.941 12.3451 11.8947 12.5 11.9216V12C12.5 12.2761 12.2761 12.5 12 12.5C11.9729 12.5 11.9463 12.4978 11.9203 12.4937C11.8958 12.3407 11.9425 12.1785 12.0605 12.0606Z" fill="#C4C4C4" stroke="#F5CF13" stroke-linecap="round" stroke-linejoin="round"/>
</svg>
