<svg width="16" height="17" viewBox="0 0 16 17" fill="none" xmlns="http://www.w3.org/2000/svg">
<path d="M7.55163 1.40849C7.73504 1.03687 8.26496 1.03687 8.44837 1.40849L10.2348 5.02821C10.3076 5.17578 10.4484 5.27807 10.6113 5.30173L14.6059 5.88218C15.016 5.94177 15.1797 6.44576 14.883 6.73503L11.9925 9.55258C11.8746 9.66745 11.8208 9.83295 11.8487 9.99515L12.531 13.9736C12.6011 14.3821 12.1724 14.6935 11.8055 14.5007L8.23267 12.6223C8.08701 12.5457 7.91299 12.5457 7.76733 12.6223L4.19445 14.5007C3.82764 14.6935 3.39892 14.3821 3.46898 13.9736L4.15134 9.99515C4.17916 9.83295 4.12538 9.66745 4.00754 9.55258L1.11702 6.73503C0.820263 6.44576 0.984019 5.94177 1.39413 5.88218L5.38873 5.30173C5.55158 5.27807 5.69236 5.17578 5.76519 5.02821L7.55163 1.40849Z" fill="#F5CF13"/>
</svg>
